<?xml version="1.0" standalone="no"?>
<!DOCTYPE svg PUBLIC "-//W3C//DTD SVG 20010904//EN"
 "http://www.w3.org/TR/2001/REC-SVG-20010904/DTD/svg10.dtd">
<svg version="1.0" xmlns="http://www.w3.org/2000/svg"
 width="820.000000pt" height="820.000000pt" viewBox="0 0 820.000000 820.000000"
 preserveAspectRatio="xMidYMid meet">
<metadata>
Created by potrace 1.14, written by Peter Selinger 2001-2017
</metadata>
<g transform="translate(0.000000,820.000000) scale(0.100000,-0.100000)"
fill="#000000" stroke="none">
<path d="M3828 8183 c-10 -2 -18 -8 -18 -12 0 -4 -11 -13 -24 -19 -13 -6 -27
-20 -31 -32 -3 -11 -11 -18 -16 -15 -5 4 -9 -3 -9 -14 0 -11 -6 -26 -13 -33
-8 -7 -13 -26 -13 -41 1 -16 -1 -30 -5 -33 -7 -4 -2 -69 8 -94 3 -8 7 -24 7
-35 4 -43 18 -105 25 -105 12 0 11 -54 -1 -62 -10 -6 -10 -8 1 -8 9 0 10 -4 4
-12 -5 -7 -10 -29 -12 -48 -2 -19 -7 -43 -12 -53 -6 -9 -7 -23 -3 -29 4 -7 3
-8 -4 -4 -7 4 -12 2 -12 -3 0 -22 -1 -27 -16 -49 -9 -13 -13 -26 -10 -29 3 -3
-2 -12 -10 -20 -8 -8 -12 -19 -9 -24 4 -5 1 -9 -6 -9 -7 0 -10 -3 -6 -6 3 -4
-1 -13 -9 -21 -8 -8 -12 -19 -9 -24 4 -5 2 -9 -3 -9 -9 0 -27 -47 -24 -62 1
-5 -2 -8 -7 -8 -5 0 -13 -10 -16 -22 -12 -42 -30 -78 -38 -78 -5 0 -5 -4 -2
-10 3 -5 3 -10 -2 -10 -4 0 -14 -15 -22 -32 -8 -18 -23 -49 -35 -68 -11 -19
-20 -41 -18 -48 2 -7 -3 -11 -10 -10 -7 2 -12 -3 -10 -10 1 -7 -5 -15 -14 -19
-13 -5 -13 -7 -2 -14 10 -7 9 -9 -4 -9 -10 0 -18 -5 -18 -10 0 -6 -13 -24 -29
-39 -16 -16 -28 -31 -26 -33 2 -2 -5 -9 -16 -16 -17 -11 -21 -9 -31 13 -6 14
-14 25 -18 25 -8 0 -8 2 -10 97 -1 40 1 77 5 82 3 6 1 11 -5 11 -6 0 -8 4 -5
10 11 17 -13 81 -39 105 -14 12 -22 25 -20 28 3 3 -4 8 -15 12 -12 3 -21 13
-21 21 0 8 -4 13 -9 10 -5 -3 -14 1 -21 9 -13 15 -45 15 -82 0 -10 -4 -23 -22
-30 -41 -6 -19 -15 -34 -18 -34 -6 0 -5 -89 0 -100 2 -3 4 -9 5 -15 9 -34 18
-55 26 -55 5 0 9 -9 9 -20 0 -11 5 -20 10 -20 6 0 10 -8 10 -17 0 -10 7 -27
15 -37 8 -10 12 -23 9 -27 -3 -5 -5 -32 -6 -60 0 -47 -2 -51 -21 -46 -42 9
-52 12 -58 20 -3 4 -16 10 -30 12 -13 3 -25 9 -27 15 -2 5 -8 10 -14 10 -27 0
-238 186 -238 210 0 6 -4 8 -10 5 -5 -3 -10 -1 -10 4 0 6 -21 33 -47 60 -70
71 -141 151 -134 151 3 0 -5 7 -17 16 -20 14 -40 46 -40 64 0 3 -7 22 -16 44
-9 21 -16 55 -16 75 0 20 -4 41 -9 47 -6 5 -11 30 -12 57 -2 26 -6 47 -10 47
-4 0 -6 18 -5 39 1 22 -1 38 -5 35 -4 -2 -9 10 -12 26 -4 17 -8 36 -10 43 -2
6 -7 24 -12 40 -4 15 -11 27 -16 27 -5 0 -9 5 -9 10 0 6 -11 23 -25 38 -14 15
-25 23 -25 19 0 -5 -6 -2 -14 6 -9 9 -30 13 -53 12 -70 -5 -69 -4 -54 -14 11
-7 9 -10 -8 -16 -12 -3 -19 -11 -16 -16 4 -5 2 -9 -3 -9 -9 0 -26 -55 -23 -72
0 -5 -3 -8 -8 -8 -14 0 -14 -160 1 -178 7 -9 8 -13 2 -10 -5 4 -1 -20 9 -52
22 -67 64 -120 95 -120 11 0 24 -5 28 -12 5 -7 3 -8 -7 -3 -11 7 -12 6 -2 -6
6 -8 12 -37 13 -64 2 -100 -7 -301 -14 -313 -4 -7 -2 -12 6 -12 10 0 10 -2 0
-8 -7 -5 -10 -22 -8 -40 2 -18 0 -32 -4 -32 -8 0 -24 -95 -21 -124 2 -12 -2
-16 -9 -11 -9 6 -9 2 0 -15 8 -15 8 -20 1 -16 -10 6 -11 3 -11 -19 0 -3 -11
-28 -25 -55 -14 -28 -23 -56 -19 -62 4 -6 3 -8 -3 -5 -5 3 -18 -14 -28 -39
-10 -24 -20 -42 -23 -39 -3 2 -10 -2 -17 -11 -10 -14 -15 -12 -45 13 -18 15
-52 47 -76 70 -23 22 -45 39 -48 35 -3 -3 -6 1 -6 8 0 8 -9 23 -20 35 -11 11
-21 31 -23 43 -2 12 -6 25 -10 28 -4 4 -7 23 -7 41 0 19 -4 32 -9 29 -5 -4 -8
5 -6 19 1 14 -2 25 -6 25 -5 0 -8 3 -8 8 4 25 -2 62 -10 58 -5 -4 -7 2 -4 13
3 11 -6 29 -21 46 -14 15 -26 24 -26 20 0 -4 -9 2 -20 15 -11 13 -20 21 -20
17 0 -3 -12 -2 -27 2 -59 16 -113 -34 -107 -99 3 -34 43 -120 54 -120 6 0 10
-7 10 -15 0 -8 4 -15 8 -15 9 0 36 -59 35 -77 -1 -7 3 -13 9 -13 5 0 7 -4 3
-9 -3 -5 0 -13 6 -16 5 -4 8 -13 5 -21 -3 -8 -1 -14 4 -14 6 0 10 -7 10 -15 0
-21 -25 -9 -90 43 -30 24 -68 53 -84 65 -15 12 -37 31 -47 41 -11 11 -19 16
-19 12 0 -4 -20 12 -45 37 -24 24 -47 42 -50 39 -3 -3 -5 -1 -5 5 0 14 -58 73
-72 73 -6 0 -8 3 -5 7 4 3 -5 16 -18 29 -14 13 -25 28 -25 34 0 5 -4 10 -9 10
-5 0 -14 14 -21 30 -7 17 -16 30 -21 30 -5 0 -9 7 -9 16 0 8 -7 22 -15 31 -9
8 -19 28 -22 44 -3 16 -8 29 -12 29 -3 0 -12 14 -19 30 -8 17 -20 30 -28 30
-8 0 -14 5 -14 11 0 5 -4 8 -9 5 -5 -3 -14 1 -21 9 -6 7 -19 11 -27 8 -10 -4
-14 -2 -10 4 9 14 -25 12 -35 -2 -5 -6 -8 -5 -8 3 0 10 -10 12 -36 9 -42 -6
-75 -33 -67 -55 5 -11 3 -13 -8 -7 -12 8 -12 6 0 -8 11 -14 11 -17 0 -17 -12
0 -12 -2 0 -9 11 -7 11 -9 0 -14 -10 -4 -10 -6 -1 -6 6 -1 12 -10 12 -21 0
-11 5 -20 10 -20 6 0 9 -3 8 -7 -4 -13 23 -54 53 -84 16 -16 29 -26 29 -22 0
3 16 -11 35 -31 19 -21 35 -34 35 -30 0 4 7 -1 16 -12 8 -10 12 -12 8 -4 -4 8
5 2 19 -13 15 -15 27 -30 27 -33 0 -5 10 -18 36 -47 12 -13 13 -17 21 -47 3
-11 9 -20 14 -20 5 0 9 -7 9 -15 0 -8 5 -15 11 -15 5 0 7 -5 3 -11 -3 -6 -2
-14 3 -18 13 -7 88 -153 85 -163 -1 -5 3 -8 9 -8 8 0 7 -6 -2 -17 -10 -11 -10
-14 -2 -9 8 4 13 1 13 -8 0 -9 3 -16 8 -16 6 0 28 -36 49 -82 2 -4 -2 -10 -9
-14 -7 -4 -10 -4 -6 1 4 4 -5 18 -21 29 -16 12 -55 51 -87 86 -33 35 -71 77
-87 93 -15 16 -27 33 -27 38 0 6 -4 7 -10 4 -5 -3 -10 1 -10 9 0 8 -5 18 -12
22 -7 5 -9 2 -4 -7 4 -8 0 -5 -8 5 -9 11 -16 26 -16 33 0 7 -4 13 -10 13 -5 0
-12 11 -16 25 -3 14 -10 22 -15 19 -5 -3 -9 2 -9 10 0 9 -4 16 -8 16 -5 0 -14
11 -20 25 -6 13 -23 27 -37 31 -14 3 -25 9 -25 13 0 7 -55 29 -92 37 -27 5
-80 -15 -72 -27 3 -5 0 -9 -5 -9 -6 0 -11 -7 -11 -15 0 -8 -4 -15 -10 -15 -5
0 -10 -19 -10 -43 0 -38 6 -50 45 -93 25 -27 48 -48 50 -47 14 7 66 -12 87
-32 14 -12 39 -26 56 -30 18 -3 30 -11 26 -16 -3 -5 1 -9 8 -9 12 0 48 -34 48
-45 0 -3 8 -14 18 -24 28 -32 38 -45 45 -63 3 -10 11 -18 17 -18 6 0 8 -4 5
-10 -3 -5 -1 -10 4 -10 6 0 11 -7 11 -15 0 -8 5 -15 10 -15 6 0 10 -7 10 -15
0 -8 4 -15 9 -15 7 0 13 -14 21 -48 1 -4 8 -11 16 -15 8 -4 14 -15 14 -22 0
-8 5 -15 10 -15 6 0 10 -9 10 -20 0 -11 7 -23 15 -26 8 -4 15 -12 15 -20 0 -8
5 -14 11 -14 5 0 7 -4 4 -10 -3 -5 -2 -10 3 -10 5 0 17 -15 25 -32 20 -42 64
-88 82 -88 8 0 22 -17 30 -37 9 -21 22 -44 29 -53 7 -8 16 -28 20 -43 4 -15
10 -26 14 -23 4 2 8 -3 9 -12 2 -31 8 -46 22 -61 12 -13 9 -19 -18 -43 -17
-15 -31 -32 -31 -37 0 -5 -7 -12 -16 -15 -8 -3 -12 -10 -9 -16 3 -5 2 -10 -3
-10 -5 0 -8 -13 -7 -30 1 -16 -2 -27 -7 -24 -4 3 -8 1 -8 -5 0 -5 5 -13 10
-16 7 -4 6 -13 -1 -27 -6 -11 -7 -23 -3 -27 5 -3 15 -18 23 -33 7 -15 27 -32
42 -39 16 -6 29 -17 29 -23 0 -6 5 -4 10 4 7 11 10 11 10 2 0 -7 5 -10 10 -7
5 3 10 -3 10 -14 0 -12 4 -21 10 -21 5 0 7 -7 4 -15 -4 -8 -2 -15 3 -15 5 0
10 -10 11 -22 4 -38 7 -52 15 -65 5 -7 4 -13 0 -13 -5 0 -9 -9 -10 -20 -1 -11
-9 -27 -17 -36 -9 -8 -16 -24 -16 -35 0 -11 -4 -18 -8 -15 -4 2 -8 -4 -8 -15
0 -10 3 -19 6 -19 4 0 7 -13 7 -30 0 -16 -5 -30 -11 -30 -7 0 -8 -3 -1 -8 9
-6 35 -56 35 -67 0 -3 -4 -5 -10 -5 -28 0 -234 -114 -300 -165 -109 -87 -228
-234 -278 -345 -26 -57 -59 -160 -68 -208 -4 -20 -9 -46 -11 -57 -11 -46 -9
-294 2 -360 19 -104 22 -115 43 -175 44 -124 111 -229 204 -316 64 -60 151
-124 168 -124 4 0 10 -3 12 -7 10 -24 243 -118 398 -162 121 -33 476 -102 710
-137 19 -3 60 -9 90 -14 30 -5 73 -12 95 -15 297 -42 441 -91 527 -176 76 -76
93 -184 44 -284 -49 -98 -162 -167 -341 -207 -85 -18 -131 -22 -310 -22 -115
0 -235 3 -265 7 -152 20 -331 88 -406 155 -69 61 -120 159 -126 240 -2 30 -4
32 -43 33 -53 0 -819 1 -869 0 l-39 -1 6 -130 c10 -200 43 -340 113 -484 116
-236 308 -398 603 -510 98 -38 255 -80 351 -96 36 -5 76 -12 90 -15 14 -3 50
-8 80 -11 30 -3 66 -7 80 -9 14 -2 27 -4 30 -4 3 -1 5 -100 5 -221 l0 -220
384 2 385 3 0 218 c0 141 4 217 11 218 36 5 148 20 180 25 35 5 131 22 160 28
11 2 56 14 100 26 44 12 87 23 95 25 35 8 158 59 233 96 92 46 196 114 247
161 70 66 65 73 64 -98 -1 -136 0 -154 15 -155 9 0 270 -1 581 -1 l565 -1 0
-271 0 -271 380 0 380 0 0 260 c-1 143 0 265 2 271 3 7 45 11 116 12 164 2
323 12 427 27 133 19 313 62 413 100 337 126 539 346 608 660 21 93 18 363 -5
450 -40 153 -125 297 -238 399 -68 62 -190 146 -250 173 -34 15 -38 21 -38 52
0 34 4 38 57 66 191 99 323 258 373 445 21 77 21 82 25 205 15 456 -234 760
-728 889 -176 46 -337 65 -599 69 -96 1 -159 6 -160 12 -1 5 -2 138 -2 295
l-1 285 -295 5 c-295 5 -300 6 -290 38 1 4 2 10 1 15 0 4 4 7 10 7 8 0 8 5 -1
15 -7 8 -8 15 -3 15 5 0 10 7 10 15 0 8 -4 15 -9 15 -4 0 -8 9 -8 19 0 22 -41
71 -59 71 -7 0 -9 5 -6 10 4 6 3 9 -2 8 -22 -6 -49 14 -51 38 -1 14 -7 34 -13
46 -8 16 -8 19 1 13 9 -6 9 -2 1 14 -7 12 -9 26 -6 31 3 6 1 10 -6 10 -9 0 -9
3 0 14 8 10 9 16 1 21 -5 3 -10 11 -10 16 0 6 4 8 9 5 5 -4 7 3 4 14 -3 11 0
20 6 20 6 0 11 7 11 15 0 8 5 15 11 15 5 0 7 5 4 10 -3 6 -1 10 4 10 6 0 11 7
11 15 0 8 5 15 11 15 5 0 7 4 4 10 -3 5 -1 18 5 29 7 13 7 22 0 26 -6 4 -8 11
-5 16 4 5 1 9 -5 9 -7 0 -10 6 -7 13 3 8 -3 20 -14 28 -10 7 -19 19 -19 26 0
7 -9 13 -20 13 -19 0 -40 44 -27 57 4 3 2 14 -4 24 -5 11 -6 19 -2 19 4 0 9
17 9 38 1 20 5 46 9 56 6 15 5 17 -5 11 -10 -6 -11 -4 -4 6 9 15 12 28 18 74
3 17 5 30 6 30 2 0 8 25 15 70 3 22 10 54 15 70 10 33 21 83 22 103 1 6 5 12
9 12 4 0 6 9 4 20 -2 11 -1 20 3 20 4 0 9 8 10 18 3 31 7 47 15 60 5 7 11 25
13 39 3 15 11 31 17 35 7 4 8 8 3 8 -6 0 -5 5 2 12 7 7 12 25 12 41 0 15 4 26
8 23 4 -2 9 7 10 21 1 13 5 30 9 36 4 7 8 18 9 25 2 8 9 21 18 30 8 10 14 19
13 22 -3 10 30 50 36 44 4 -4 9 1 13 10 3 9 12 16 19 16 18 0 47 48 49 82 0
15 3 28 6 28 3 0 7 12 8 28 4 42 7 56 16 71 6 10 5 12 -2 7 -8 -5 -12 5 -12
33 0 23 -1 44 -2 49 -6 18 -43 52 -58 52 -9 0 -21 5 -28 12 -9 9 -12 9 -12 -1
0 -7 -8 -11 -17 -10 -37 3 -52 -2 -82 -28 -18 -16 -31 -37 -31 -50 0 -13 -4
-23 -9 -23 -5 0 -8 -18 -7 -39 0 -22 -2 -37 -6 -34 -5 2 -8 -19 -8 -46 0 -34
-4 -51 -12 -51 -8 0 -9 -3 -3 -8 15 -11 17 -32 2 -32 -8 0 -8 -3 2 -9 12 -7
12 -13 3 -24 -7 -7 -9 -17 -5 -20 3 -4 1 -7 -5 -7 -7 0 -12 -9 -12 -20 0 -10
-7 -23 -15 -28 -9 -4 -17 -18 -18 -29 0 -12 -5 -19 -9 -17 -4 3 -10 -6 -14
-20 -3 -13 -12 -27 -20 -30 -8 -3 -14 -13 -14 -21 0 -10 -5 -13 -12 -9 -7 4
-10 4 -6 -1 4 -4 2 -17 -4 -29 -7 -11 -11 -24 -10 -28 1 -3 -5 -9 -14 -12 -8
-3 -12 -2 -9 4 3 6 0 10 -7 10 -9 0 -9 3 2 10 9 6 10 10 3 10 -8 0 -9 9 -4 28
4 15 4 39 0 54 -6 22 -4 25 9 21 11 -5 13 -3 6 8 -10 15 -13 79 -4 79 3 0 6
15 7 33 1 33 11 112 13 112 3 0 11 40 12 55 0 8 5 21 11 28 5 6 6 12 1 12 -5
0 -2 5 6 10 10 6 11 10 3 10 -8 0 -5 8 7 20 11 11 22 31 26 45 3 14 10 25 15
25 5 0 9 7 9 16 0 8 5 25 12 37 7 12 14 31 16 42 2 11 4 25 6 30 1 6 6 16 10
24 7 10 6 12 -4 6 -10 -6 -11 -4 -4 6 4 8 9 25 9 39 0 14 4 31 8 38 5 7 4 12
-2 12 -6 0 -10 3 -9 8 9 32 -54 108 -88 106 -45 -1 -69 -15 -124 -67 -27 -26
-30 -34 -30 -96 0 -40 5 -72 13 -80 10 -11 10 -13 0 -7 -7 4 -13 2 -13 -3 0
-6 6 -11 13 -11 8 0 7 -4 -3 -10 -8 -5 -10 -10 -4 -10 17 0 15 -101 -3 -142
-9 -20 -20 -35 -25 -32 -4 3 -8 -4 -8 -15 0 -11 -5 -23 -10 -26 -6 -4 -8 -11
-5 -16 4 -5 1 -9 -4 -9 -6 0 -11 -13 -11 -30 0 -16 -4 -30 -8 -30 -4 0 -9 -11
-10 -24 -2 -24 -34 -91 -53 -110 -5 -6 -9 -18 -9 -27 0 -10 -7 -25 -16 -33 -8
-9 -12 -20 -9 -26 3 -5 1 -10 -4 -10 -6 0 -11 -7 -11 -15 0 -8 -5 -15 -11 -15
-5 0 -8 -4 -4 -9 3 -6 -3 -14 -12 -20 -10 -6 -14 -11 -9 -11 5 0 1 -9 -9 -20
-10 -11 -15 -20 -11 -20 8 0 -9 -22 -36 -48 -10 -9 -18 -22 -18 -30 0 -7 -7
-15 -15 -18 -8 -4 -15 -13 -15 -22 0 -13 -3 -13 -12 -4 -14 14 -19 62 -7 62 4
0 6 16 5 35 -2 20 0 38 4 40 4 3 8 17 8 32 0 15 5 29 11 31 6 2 9 8 5 13 -3 5
0 9 5 9 6 0 11 9 11 19 0 11 4 22 9 25 13 9 19 66 7 66 -7 0 -8 3 -1 8 13 9
15 62 3 62 -5 0 -6 5 -3 10 3 6 1 10 -5 10 -6 0 -9 4 -6 9 5 7 -49 60 -63 62
-33 5 -63 3 -67 -3 -3 -4 -13 -8 -23 -8 -10 0 -29 -10 -42 -22 -23 -22 -24
-29 -22 -118 1 -52 2 -96 4 -97 6 -9 3 -29 -6 -35 -6 -5 -5 -8 3 -8 9 0 10 -5
3 -18 -6 -10 -6 -24 0 -34 6 -11 4 -20 -6 -28 -8 -7 -15 -18 -15 -25 0 -7 -9
-24 -21 -39 -11 -14 -18 -26 -14 -26 4 0 -1 -7 -9 -16 -9 -8 -16 -22 -16 -30
0 -8 -4 -12 -10 -9 -5 3 -7 0 -5 -8 3 -7 -6 -26 -20 -41 -14 -15 -25 -31 -25
-36 0 -16 -30 -4 -46 18 -8 12 -19 20 -24 17 -5 -3 -11 3 -15 14 -3 11 -12 22
-20 25 -8 3 -15 13 -15 22 0 10 -3 14 -6 11 -8 -8 -64 65 -58 75 2 3 -5 9 -16
13 -11 4 -18 10 -15 15 3 4 -2 13 -10 20 -8 7 -15 19 -15 26 0 8 -4 14 -9 14
-7 0 -14 15 -19 43 -1 4 -13 20 -27 35 -14 15 -25 32 -25 39 0 7 -5 13 -11 13
-5 0 -8 4 -4 9 3 5 -6 26 -20 46 -13 21 -23 41 -20 45 3 4 -2 13 -10 20 -8 7
-15 23 -15 36 0 12 -5 26 -10 29 -6 4 -8 11 -5 16 4 5 2 9 -4 9 -6 0 -8 7 -5
15 4 8 10 12 15 9 5 -3 9 0 9 5 0 6 -4 11 -10 11 -5 0 -10 9 -10 21 0 11 -4
18 -8 15 -4 -3 -6 10 -4 27 2 18 4 40 5 49 1 9 4 15 8 12 4 -2 7 11 7 29 0 55
13 141 24 155 8 8 7 12 -3 12 -9 0 -10 3 -4 8 11 8 14 16 16 63 3 55 -1 62
-58 124 -18 19 -37 35 -42 35 -5 0 -17 3 -27 7 -13 5 -15 3 -9 -8 6 -11 5 -12
-6 -1 -7 6 -15 11 -18 11 -4 -1 -14 -3 -23 -6z m-98 -737 c0 -2 -7 -7 -16 -10
-8 -3 -12 -2 -9 4 6 10 25 14 25 6z m-2735 -666 c-3 -5 -1 -10 4 -10 6 0 11
-5 11 -11 0 -8 -5 -8 -15 1 -13 11 -12 30 1 30 3 0 2 -4 -1 -10z m4122 -302
c1 -11 8 -25 15 -29 11 -7 11 -9 0 -9 -8 0 -10 -5 -6 -12 5 -9 4 -10 -3 -3
-14 13 -24 60 -16 69 9 8 9 9 10 -16z m56 -1066 c-1 -86 -2 -193 -3 -238 l0
-81 -329 1 c-181 1 -333 5 -337 9 -4 4 -13 2 -21 -4 -9 -9 -13 -8 -13 0 0 9
-5 9 -20 1 -15 -8 -20 -8 -20 1 0 9 -3 9 -14 0 -10 -8 -16 -9 -21 -1 -3 5 -12
10 -18 10 -8 0 -7 -3 2 -9 10 -7 7 -9 -12 -8 -15 1 -27 6 -27 11 0 5 -7 3 -15
-4 -11 -9 -15 -9 -15 -1 0 9 -5 9 -20 1 -14 -8 -20 -8 -20 0 0 6 -5 8 -12 4
-17 -11 -108 -12 -108 -2 0 5 -9 4 -20 -2 -14 -8 -20 -8 -20 0 0 7 -5 8 -12 3
-19 -11 -68 -12 -68 -1 0 5 -4 6 -10 3 -5 -3 -8 -96 -7 -235 1 -127 0 -230 -3
-230 -3 0 -14 15 -25 33 -10 17 -27 41 -37 52 -10 10 -16 25 -14 32 3 7 -1 10
-10 6 -8 -3 -14 1 -14 9 0 7 -9 19 -20 26 -12 7 -18 18 -14 25 4 7 4 9 -1 5
-11 -11 -36 12 -28 25 3 5 1 7 -4 4 -10 -6 -29 7 -100 73 -13 11 -24 20 -25
20 -10 -3 -37 14 -33 20 3 4 -1 7 -8 7 -14 -2 -131 55 -135 66 -2 4 -11 7 -20
7 -21 1 -62 30 -42 30 7 0 10 3 7 6 -4 4 -13 1 -21 -5 -8 -7 -17 -8 -20 -3 -3
5 -30 15 -61 22 -61 15 -74 35 -21 35 19 0 32 -4 28 -9 -3 -5 1 -5 9 0 18 11
34 14 82 15 20 1 37 4 37 8 0 4 18 7 39 6 22 -1 37 3 35 7 -3 4 5 8 18 8 13 0
30 6 37 13 11 10 13 10 7 0 -4 -7 -2 -13 3 -13 6 0 11 4 11 9 0 8 75 26 93 22
4 0 7 3 7 7 0 4 8 9 18 10 9 1 26 4 37 6 11 2 28 5 38 5 12 1 16 6 11 14 -4 6
-4 9 0 5 5 -4 19 -3 32 2 15 6 26 6 30 -1 4 -7 10 -7 18 0 7 6 23 13 37 15 13
3 24 5 24 6 0 1 11 3 25 5 79 9 126 19 133 29 6 8 10 7 14 -2 2 -6 10 -9 16
-5 29 19 77 31 77 19 0 -7 3 -8 8 -1 4 6 14 10 22 10 8 0 18 3 21 7 3 5 23 10
45 12 21 3 40 5 42 6 1 2 5 3 10 4 4 1 13 5 21 10 10 7 12 5 6 -5 -6 -11 -5
-12 6 -1 7 6 21 12 31 12 10 0 18 6 19 13 0 9 2 9 6 -1 2 -6 10 -9 16 -5 14 9
30 13 74 20 18 3 31 9 28 14 -3 4 3 6 15 4 11 -2 22 0 25 6 4 5 19 9 36 9 16
0 29 5 29 13 0 9 3 8 9 -2 6 -9 10 -10 16 -2 4 7 16 9 27 5 12 -4 18 -2 14 4
-4 8 27 17 86 26 3 1 10 4 14 9 4 4 20 7 36 7 15 0 28 4 28 8 0 4 9 8 20 9 11
1 34 9 51 17 18 9 35 13 40 11 4 -3 10 -1 14 5 3 5 15 10 26 10 10 0 19 4 19
8 0 4 8 8 18 9 16 1 17 -11 15 -155z m-1935 -256 c7 -4 12 -2 12 6 0 9 3 9 10
-2 5 -8 10 -11 10 -6 0 5 6 3 13 -3 8 -6 16 -8 19 -5 3 2 8 -2 11 -9 6 -16 8
-16 -87 8 -32 8 -61 17 -64 20 -8 8 62 0 76 -9z m-498 -790 c14 -3 40 -9 59
-12 61 -10 187 -60 237 -94 27 -18 65 -51 85 -72 37 -39 107 -158 93 -158 -5
0 -3 -5 4 -12 7 -7 12 -22 12 -34 0 -12 6 -26 13 -31 7 -5 171 -9 395 -9 l382
1 0 -354 0 -354 -32 27 c-87 72 -222 147 -350 196 -77 29 -286 86 -408 110
-181 35 -204 40 -250 45 -25 3 -83 12 -130 20 -47 8 -103 17 -125 20 -73 11
-408 76 -495 96 -205 47 -312 140 -323 280 -8 105 43 199 139 255 60 35 176
73 244 81 30 3 57 7 59 9 7 7 363 -3 391 -10z m3415 -106 c174 -46 268 -150
266 -294 -1 -74 -15 -120 -54 -169 -45 -57 -128 -103 -222 -123 -16 -3 -265
-7 -552 -8 l-523 -2 0 53 c-1 29 -1 127 -1 218 0 91 0 205 1 253 l0 88 518 -1
c392 -1 529 -5 567 -15z m18 -1214 c133 -31 238 -115 272 -216 24 -71 22 -160
-4 -230 -37 -98 -107 -164 -226 -211 l-60 -24 -542 -3 c-442 -3 -543 -1 -544
10 -1 16 -1 576 0 639 l1 46 538 -2 c295 -1 550 -5 565 -9z"/>
<path d="M4407 5179 c7 -7 15 -10 18 -7 3 3 -2 9 -12 12 -14 6 -15 5 -6 -5z"/>
<path d="M4260 5140 c-9 -6 -10 -10 -3 -10 6 0 15 5 18 10 8 12 4 12 -15 0z"/>
<path d="M4370 5140 c0 -5 5 -10 11 -10 5 0 7 5 4 10 -3 6 -8 10 -11 10 -2 0
-4 -4 -4 -10z"/>
<path d="M3540 5086 c0 -2 8 -10 18 -17 15 -13 16 -12 3 4 -13 16 -21 21 -21
13z"/>
<path d="M3850 5060 c0 -5 5 -10 11 -10 5 0 7 5 4 10 -3 6 -8 10 -11 10 -2 0
-4 -4 -4 -10z"/>
<path d="M3610 5020 c0 -5 5 -10 11 -10 5 0 7 5 4 10 -3 6 -8 10 -11 10 -2 0
-4 -4 -4 -10z"/>
<path d="M3940 5006 c0 -2 8 -10 18 -17 15 -13 16 -12 3 4 -13 16 -21 21 -21
13z"/>
</g>
</svg>
